<mxfile host="app.diagrams.net" agent="Mozilla/5.0 (X11; Linux x86_64; rv:132.0) Gecko/20100101 Firefox/132.0" version="24.8.6">
  <diagram name="Page-1" id="H_VIP1LDes3V5zh3lzSZ">
    <mxGraphModel dx="2045" dy="1723" grid="1" gridSize="10" guides="1" tooltips="1" connect="1" arrows="1" fold="1" page="1" pageScale="1" pageWidth="850" pageHeight="1100" math="0" shadow="0">
      <root>
        <mxCell id="0" />
        <mxCell id="1" parent="0" />
        <mxCell id="0l0HvCfX4bjxtaif04-J-16" value="" style="rounded=0;whiteSpace=wrap;html=1;fillColor=none;dashed=1;strokeWidth=4;strokeColor=#b85450;fontFamily=Iosevka NF;" parent="1" vertex="1">
          <mxGeometry x="-240" y="630" width="350" height="251" as="geometry" />
        </mxCell>
        <mxCell id="0l0HvCfX4bjxtaif04-J-1" value="" style="rounded=0;whiteSpace=wrap;html=1;fillColor=none;strokeWidth=4;dashed=1;strokeColor=#82b366;fontFamily=Iosevka NF;" parent="1" vertex="1">
          <mxGeometry x="-230" y="170" width="310" height="211" as="geometry" />
        </mxCell>
        <mxCell id="0l0HvCfX4bjxtaif04-J-2" style="rounded=0;orthogonalLoop=1;jettySize=auto;html=1;fillColor=#fff2cc;strokeColor=#d6b656;strokeWidth=8;endArrow=none;endFill=0;exitX=0.12;exitY=0.9;exitDx=0;exitDy=0;exitPerimeter=0;entryX=0.88;entryY=0.1;entryDx=0;entryDy=0;entryPerimeter=0;fontFamily=Iosevka NF;" parent="1" source="0l0HvCfX4bjxtaif04-J-3" target="0l0HvCfX4bjxtaif04-J-5" edge="1">
          <mxGeometry relative="1" as="geometry" />
        </mxCell>
        <mxCell id="0l0HvCfX4bjxtaif04-J-3" value="" style="shape=mxgraph.cisco.routers.router;sketch=0;html=1;pointerEvents=1;dashed=0;fillColor=#036897;strokeColor=#ffffff;strokeWidth=2;verticalLabelPosition=bottom;verticalAlign=top;align=center;outlineConnect=0;fontFamily=Iosevka NF;" parent="1" vertex="1">
          <mxGeometry x="-14.75" y="411" width="78" height="53" as="geometry" />
        </mxCell>
        <mxCell id="0l0HvCfX4bjxtaif04-J-4" value="" style="shape=mxgraph.cisco.routers.router;sketch=0;html=1;pointerEvents=1;dashed=0;fillColor=#036897;strokeColor=#ffffff;strokeWidth=2;verticalLabelPosition=bottom;verticalAlign=top;align=center;outlineConnect=0;fontFamily=Iosevka NF;" parent="1" vertex="1">
          <mxGeometry x="-14.75" y="536" width="78" height="53" as="geometry" />
        </mxCell>
        <mxCell id="0l0HvCfX4bjxtaif04-J-5" value="" style="shape=mxgraph.cisco.routers.router;sketch=0;html=1;pointerEvents=1;dashed=0;fillColor=#036897;strokeColor=#ffffff;strokeWidth=2;verticalLabelPosition=bottom;verticalAlign=top;align=center;outlineConnect=0;fontFamily=Iosevka NF;" parent="1" vertex="1">
          <mxGeometry x="-210" y="536" width="78" height="53" as="geometry" />
        </mxCell>
        <mxCell id="0l0HvCfX4bjxtaif04-J-6" value="" style="shape=mxgraph.cisco.security.firewall;sketch=0;html=1;pointerEvents=1;dashed=0;fillColor=#036897;strokeColor=#ffffff;strokeWidth=2;verticalLabelPosition=bottom;verticalAlign=top;align=center;outlineConnect=0;fontFamily=Iosevka NF;" parent="1" vertex="1">
          <mxGeometry x="9.75" y="284" width="29" height="67" as="geometry" />
        </mxCell>
        <mxCell id="0l0HvCfX4bjxtaif04-J-7" style="edgeStyle=orthogonalEdgeStyle;rounded=0;orthogonalLoop=1;jettySize=auto;html=1;endArrow=none;endFill=0;strokeWidth=8;fillColor=#d5e8d4;strokeColor=#82b366;exitX=0.5;exitY=0.98;exitDx=0;exitDy=0;exitPerimeter=0;entryX=0.5;entryY=0;entryDx=0;entryDy=0;entryPerimeter=0;fontFamily=Iosevka NF;" parent="1" source="0l0HvCfX4bjxtaif04-J-8" target="0l0HvCfX4bjxtaif04-J-9" edge="1">
          <mxGeometry relative="1" as="geometry" />
        </mxCell>
        <mxCell id="0l0HvCfX4bjxtaif04-J-8" value="" style="shape=mxgraph.cisco.switches.workgroup_switch;sketch=0;html=1;pointerEvents=1;dashed=0;fillColor=#036897;strokeColor=#ffffff;strokeWidth=2;verticalLabelPosition=bottom;verticalAlign=top;align=center;outlineConnect=0;fontFamily=Iosevka NF;" parent="1" vertex="1">
          <mxGeometry x="-199" y="192" width="101" height="50" as="geometry" />
        </mxCell>
        <mxCell id="0l0HvCfX4bjxtaif04-J-9" value="" style="shape=mxgraph.cisco.switches.workgroup_switch;sketch=0;html=1;pointerEvents=1;dashed=0;fillColor=#036897;strokeColor=#ffffff;strokeWidth=2;verticalLabelPosition=bottom;verticalAlign=top;align=center;outlineConnect=0;fontFamily=Iosevka NF;" parent="1" vertex="1">
          <mxGeometry x="-199" y="292.5" width="101" height="50" as="geometry" />
        </mxCell>
        <mxCell id="0l0HvCfX4bjxtaif04-J-10" value="" style="shape=mxgraph.cisco.routers.router;sketch=0;html=1;pointerEvents=1;dashed=0;fillColor=#036897;strokeColor=#ffffff;strokeWidth=2;verticalLabelPosition=bottom;verticalAlign=top;align=center;outlineConnect=0;fontFamily=Iosevka NF;" parent="1" vertex="1">
          <mxGeometry x="-14.75" y="190.5" width="78" height="53" as="geometry" />
        </mxCell>
        <mxCell id="0l0HvCfX4bjxtaif04-J-11" style="rounded=0;orthogonalLoop=1;jettySize=auto;html=1;entryX=0.5;entryY=0;entryDx=0;entryDy=0;entryPerimeter=0;endArrow=none;endFill=0;strokeWidth=4;fillColor=#d5e8d4;strokeColor=#82b366;fontFamily=Iosevka NF;" parent="1" source="0l0HvCfX4bjxtaif04-J-6" target="0l0HvCfX4bjxtaif04-J-3" edge="1">
          <mxGeometry relative="1" as="geometry" />
        </mxCell>
        <mxCell id="0l0HvCfX4bjxtaif04-J-12" style="edgeStyle=orthogonalEdgeStyle;rounded=0;orthogonalLoop=1;jettySize=auto;html=1;endArrow=none;endFill=0;strokeWidth=4;fillColor=#d5e8d4;strokeColor=#82b366;exitX=0.98;exitY=0.5;exitDx=0;exitDy=0;exitPerimeter=0;fontFamily=Iosevka NF;" parent="1" source="0l0HvCfX4bjxtaif04-J-9" target="0l0HvCfX4bjxtaif04-J-6" edge="1">
          <mxGeometry relative="1" as="geometry">
            <Array as="points" />
          </mxGeometry>
        </mxCell>
        <mxCell id="0l0HvCfX4bjxtaif04-J-13" style="edgeStyle=orthogonalEdgeStyle;rounded=0;orthogonalLoop=1;jettySize=auto;html=1;endArrow=none;endFill=0;strokeWidth=4;fillColor=#d5e8d4;strokeColor=#82b366;entryX=0.98;entryY=0.5;entryDx=0;entryDy=0;entryPerimeter=0;fontFamily=Iosevka NF;" parent="1" source="0l0HvCfX4bjxtaif04-J-10" target="0l0HvCfX4bjxtaif04-J-8" edge="1">
          <mxGeometry relative="1" as="geometry" />
        </mxCell>
        <mxCell id="0l0HvCfX4bjxtaif04-J-14" style="rounded=0;orthogonalLoop=1;jettySize=auto;html=1;entryX=0.5;entryY=0;entryDx=0;entryDy=0;entryPerimeter=0;endArrow=none;endFill=0;fillColor=#fff2cc;strokeColor=#d6b656;strokeWidth=8;fontFamily=Iosevka NF;" parent="1" source="0l0HvCfX4bjxtaif04-J-3" target="0l0HvCfX4bjxtaif04-J-4" edge="1">
          <mxGeometry relative="1" as="geometry" />
        </mxCell>
        <mxCell id="0l0HvCfX4bjxtaif04-J-15" style="rounded=0;orthogonalLoop=1;jettySize=auto;html=1;endArrow=none;endFill=0;fillColor=#fff2cc;strokeColor=#d6b656;strokeWidth=8;fontFamily=Iosevka NF;" parent="1" source="0l0HvCfX4bjxtaif04-J-5" edge="1">
          <mxGeometry relative="1" as="geometry">
            <mxPoint x="-15" y="563" as="targetPoint" />
          </mxGeometry>
        </mxCell>
        <mxCell id="0l0HvCfX4bjxtaif04-J-17" style="edgeStyle=orthogonalEdgeStyle;rounded=0;orthogonalLoop=1;jettySize=auto;html=1;endArrow=none;endFill=0;strokeWidth=8;fillColor=#f8cecc;strokeColor=#b85450;entryX=0.98;entryY=0.5;entryDx=0;entryDy=0;entryPerimeter=0;exitX=0;exitY=0.5;exitDx=0;exitDy=0;exitPerimeter=0;fontFamily=Iosevka NF;" parent="1" source="0l0HvCfX4bjxtaif04-J-18" target="0l0HvCfX4bjxtaif04-J-19" edge="1">
          <mxGeometry relative="1" as="geometry" />
        </mxCell>
        <mxCell id="0l0HvCfX4bjxtaif04-J-18" value="" style="shape=mxgraph.cisco.switches.workgroup_switch;sketch=0;html=1;pointerEvents=1;dashed=0;fillColor=#036897;strokeColor=#ffffff;strokeWidth=2;verticalLabelPosition=bottom;verticalAlign=top;align=center;outlineConnect=0;fontFamily=Iosevka NF;" parent="1" vertex="1">
          <mxGeometry x="-54.5" y="668" width="101" height="50" as="geometry" />
        </mxCell>
        <mxCell id="0l0HvCfX4bjxtaif04-J-19" value="" style="shape=mxgraph.cisco.switches.workgroup_switch;sketch=0;html=1;pointerEvents=1;dashed=0;fillColor=#036897;strokeColor=#ffffff;strokeWidth=2;verticalLabelPosition=bottom;verticalAlign=top;align=center;outlineConnect=0;fontFamily=Iosevka NF;" parent="1" vertex="1">
          <mxGeometry x="-221.5" y="668" width="101" height="50" as="geometry" />
        </mxCell>
        <mxCell id="0l0HvCfX4bjxtaif04-J-20" style="edgeStyle=orthogonalEdgeStyle;rounded=0;orthogonalLoop=1;jettySize=auto;html=1;fillColor=#f8cecc;strokeColor=#b85450;strokeWidth=4;endArrow=none;endFill=0;fontFamily=Iosevka NF;" parent="1" source="0l0HvCfX4bjxtaif04-J-19" target="0l0HvCfX4bjxtaif04-J-24" edge="1">
          <mxGeometry relative="1" as="geometry">
            <mxPoint x="-347.5" y="688" as="targetPoint" />
          </mxGeometry>
        </mxCell>
        <mxCell id="0l0HvCfX4bjxtaif04-J-21" value="&lt;div style=&quot;font-size: 11px;&quot;&gt;&lt;font style=&quot;font-size: 11px;&quot;&gt;VLAN A&lt;/font&gt;&lt;/div&gt;" style="text;html=1;align=center;verticalAlign=middle;whiteSpace=wrap;rounded=0;fontFamily=Iosevka NF;" parent="1" vertex="1">
          <mxGeometry x="-170" y="601" width="60" height="30" as="geometry" />
        </mxCell>
        <mxCell id="0l0HvCfX4bjxtaif04-J-22" style="rounded=0;orthogonalLoop=1;jettySize=auto;html=1;exitX=0.5;exitY=0;exitDx=0;exitDy=0;exitPerimeter=0;fillColor=#f8cecc;strokeColor=#b85450;strokeWidth=4;endArrow=none;endFill=0;fontFamily=Iosevka NF;" parent="1" source="0l0HvCfX4bjxtaif04-J-25" target="0l0HvCfX4bjxtaif04-J-18" edge="1">
          <mxGeometry relative="1" as="geometry">
            <mxPoint x="-347.5" y="441" as="sourcePoint" />
            <mxPoint x="10" y="761" as="targetPoint" />
            <Array as="points" />
          </mxGeometry>
        </mxCell>
        <mxCell id="0l0HvCfX4bjxtaif04-J-23" style="edgeStyle=orthogonalEdgeStyle;rounded=0;orthogonalLoop=1;jettySize=auto;html=1;entryX=0.5;entryY=0;entryDx=0;entryDy=0;entryPerimeter=0;endArrow=none;endFill=0;fillColor=#f8cecc;strokeColor=#b85450;strokeWidth=4;fontFamily=Iosevka NF;" parent="1" source="0l0HvCfX4bjxtaif04-J-5" target="0l0HvCfX4bjxtaif04-J-19" edge="1">
          <mxGeometry relative="1" as="geometry" />
        </mxCell>
        <mxCell id="0l0HvCfX4bjxtaif04-J-24" value="" style="shape=mxgraph.cisco.computers_and_peripherals.terminal;sketch=0;html=1;pointerEvents=1;dashed=0;fillColor=#036897;strokeColor=#ffffff;strokeWidth=2;verticalLabelPosition=bottom;verticalAlign=top;align=center;outlineConnect=0;fontFamily=Iosevka NF;" parent="1" vertex="1">
          <mxGeometry x="-201.5" y="783" width="61" height="54" as="geometry" />
        </mxCell>
        <mxCell id="0l0HvCfX4bjxtaif04-J-25" value="" style="shape=mxgraph.cisco.computers_and_peripherals.terminal;sketch=0;html=1;pointerEvents=1;dashed=0;fillColor=#036897;strokeColor=#ffffff;strokeWidth=2;verticalLabelPosition=bottom;verticalAlign=top;align=center;outlineConnect=0;fontFamily=Iosevka NF;" parent="1" vertex="1">
          <mxGeometry x="-35" y="783" width="61" height="54" as="geometry" />
        </mxCell>
        <mxCell id="0l0HvCfX4bjxtaif04-J-26" value="&lt;div&gt;PC1A&lt;/div&gt;" style="text;html=1;align=center;verticalAlign=middle;whiteSpace=wrap;rounded=0;fontFamily=Iosevka NF;" parent="1" vertex="1">
          <mxGeometry x="-34" y="837" width="60" height="30" as="geometry" />
        </mxCell>
        <mxCell id="0l0HvCfX4bjxtaif04-J-27" value="&lt;div align=&quot;center&quot;&gt;&lt;div&gt;PC2A&lt;br&gt;(DNS)&lt;/div&gt;&lt;/div&gt;" style="text;html=1;align=center;verticalAlign=middle;whiteSpace=wrap;rounded=0;fontFamily=Iosevka NF;" parent="1" vertex="1">
          <mxGeometry x="-199" y="837" width="60" height="30" as="geometry" />
        </mxCell>
        <mxCell id="0l0HvCfX4bjxtaif04-J-28" value="" style="rounded=0;whiteSpace=wrap;html=1;fillColor=none;dashed=1;strokeWidth=4;strokeColor=#6c8ebf;fontFamily=Iosevka NF;" parent="1" vertex="1">
          <mxGeometry x="140" y="400.5" width="230" height="480" as="geometry" />
        </mxCell>
        <mxCell id="0l0HvCfX4bjxtaif04-J-29" style="edgeStyle=orthogonalEdgeStyle;rounded=0;orthogonalLoop=1;jettySize=auto;html=1;fillColor=#dae8fc;strokeColor=#6c8ebf;strokeWidth=8;endArrow=none;endFill=0;fontFamily=Iosevka NF;" parent="1" source="0l0HvCfX4bjxtaif04-J-30" target="0l0HvCfX4bjxtaif04-J-31" edge="1">
          <mxGeometry relative="1" as="geometry" />
        </mxCell>
        <mxCell id="0l0HvCfX4bjxtaif04-J-30" value="" style="shape=mxgraph.cisco.switches.workgroup_switch;sketch=0;html=1;pointerEvents=1;dashed=0;fillColor=#036897;strokeColor=#ffffff;strokeWidth=2;verticalLabelPosition=bottom;verticalAlign=top;align=center;outlineConnect=0;fontFamily=Iosevka NF;" parent="1" vertex="1">
          <mxGeometry x="198" y="537" width="101" height="50" as="geometry" />
        </mxCell>
        <mxCell id="0l0HvCfX4bjxtaif04-J-31" value="" style="shape=mxgraph.cisco.switches.workgroup_switch;sketch=0;html=1;pointerEvents=1;dashed=0;fillColor=#036897;strokeColor=#ffffff;strokeWidth=2;verticalLabelPosition=bottom;verticalAlign=top;align=center;outlineConnect=0;fontFamily=Iosevka NF;" parent="1" vertex="1">
          <mxGeometry x="198" y="670.5" width="101" height="50" as="geometry" />
        </mxCell>
        <mxCell id="0l0HvCfX4bjxtaif04-J-32" style="edgeStyle=orthogonalEdgeStyle;rounded=0;orthogonalLoop=1;jettySize=auto;html=1;endArrow=none;endFill=0;strokeWidth=4;fillColor=#dae8fc;strokeColor=#6c8ebf;fontFamily=Iosevka NF;" parent="1" source="0l0HvCfX4bjxtaif04-J-31" target="0l0HvCfX4bjxtaif04-J-35" edge="1">
          <mxGeometry relative="1" as="geometry">
            <mxPoint x="246" y="784.5" as="targetPoint" />
          </mxGeometry>
        </mxCell>
        <mxCell id="0l0HvCfX4bjxtaif04-J-33" value="&lt;div style=&quot;font-size: 14px;&quot;&gt;&lt;font color=&quot;#6c8ebf&quot;&gt;&lt;b&gt;&lt;i&gt;VLAN B&lt;br&gt;&lt;/i&gt;&lt;/b&gt;&lt;/font&gt;&lt;/div&gt;" style="text;html=1;align=center;verticalAlign=middle;whiteSpace=wrap;rounded=0;strokeWidth=1;fontFamily=Iosevka NF;" parent="1" vertex="1">
          <mxGeometry x="317" y="371" width="62" height="29" as="geometry" />
        </mxCell>
        <mxCell id="0l0HvCfX4bjxtaif04-J-34" style="edgeStyle=orthogonalEdgeStyle;rounded=0;orthogonalLoop=1;jettySize=auto;html=1;entryX=0.5;entryY=0;entryDx=0;entryDy=0;entryPerimeter=0;exitX=0.5;exitY=1;exitDx=0;exitDy=0;exitPerimeter=0;endArrow=none;endFill=0;strokeWidth=4;fillColor=#dae8fc;strokeColor=#6c8ebf;fontFamily=Iosevka NF;" parent="1" source="0l0HvCfX4bjxtaif04-J-36" target="0l0HvCfX4bjxtaif04-J-30" edge="1">
          <mxGeometry relative="1" as="geometry">
            <mxPoint x="246" y="537.5" as="sourcePoint" />
          </mxGeometry>
        </mxCell>
        <mxCell id="0l0HvCfX4bjxtaif04-J-35" value="" style="shape=mxgraph.cisco.computers_and_peripherals.terminal;sketch=0;html=1;pointerEvents=1;dashed=0;fillColor=#036897;strokeColor=#ffffff;strokeWidth=2;verticalLabelPosition=bottom;verticalAlign=top;align=center;outlineConnect=0;fontFamily=Iosevka NF;" parent="1" vertex="1">
          <mxGeometry x="218" y="788" width="61" height="54" as="geometry" />
        </mxCell>
        <mxCell id="0l0HvCfX4bjxtaif04-J-36" value="" style="shape=mxgraph.cisco.computers_and_peripherals.terminal;sketch=0;html=1;pointerEvents=1;dashed=0;fillColor=#036897;strokeColor=#ffffff;strokeWidth=2;verticalLabelPosition=bottom;verticalAlign=top;align=center;outlineConnect=0;fontFamily=Iosevka NF;" parent="1" vertex="1">
          <mxGeometry x="218" y="422" width="61" height="54" as="geometry" />
        </mxCell>
        <mxCell id="0l0HvCfX4bjxtaif04-J-37" value="&lt;div&gt;PC1B&lt;/div&gt;" style="text;html=1;align=center;verticalAlign=middle;whiteSpace=wrap;rounded=0;fontFamily=Iosevka NF;" parent="1" vertex="1">
          <mxGeometry x="174" y="434" width="60" height="30" as="geometry" />
        </mxCell>
        <mxCell id="0l0HvCfX4bjxtaif04-J-38" value="&lt;div&gt;PC2B&lt;/div&gt;" style="text;html=1;align=center;verticalAlign=middle;whiteSpace=wrap;rounded=0;fontFamily=Iosevka NF;" parent="1" vertex="1">
          <mxGeometry x="174" y="800" width="60" height="30" as="geometry" />
        </mxCell>
        <mxCell id="0l0HvCfX4bjxtaif04-J-39" style="rounded=0;orthogonalLoop=1;jettySize=auto;html=1;entryX=0;entryY=0.5;entryDx=0;entryDy=0;entryPerimeter=0;endArrow=none;endFill=0;strokeWidth=4;fillColor=#dae8fc;strokeColor=#6c8ebf;fontFamily=Iosevka NF;" parent="1" source="0l0HvCfX4bjxtaif04-J-4" target="0l0HvCfX4bjxtaif04-J-30" edge="1">
          <mxGeometry relative="1" as="geometry" />
        </mxCell>
        <mxCell id="0l0HvCfX4bjxtaif04-J-40" value="&lt;div style=&quot;font-size: 14px;&quot;&gt;&lt;font color=&quot;#b85450&quot; style=&quot;font-size: 14px;&quot;&gt;VLAN A&lt;/font&gt;&lt;/div&gt;" style="edgeLabel;html=1;align=center;verticalAlign=middle;resizable=0;points=[];labelBackgroundColor=none;labelBorderColor=none;textShadow=0;fontStyle=3;fontSize=14;fontFamily=Iosevka NF;" parent="1" vertex="1" connectable="0">
          <mxGeometry x="88.00000000000045" y="611.0014285714293" as="geometry" />
        </mxCell>
        <mxCell id="0l0HvCfX4bjxtaif04-J-41" value="&lt;div style=&quot;font-size: 14px;&quot;&gt;&lt;font color=&quot;#82b366&quot;&gt;&lt;b&gt;&lt;i&gt;VLAN B&lt;br&gt;&lt;/i&gt;&lt;/b&gt;&lt;/font&gt;&lt;/div&gt;" style="text;html=1;align=center;verticalAlign=middle;whiteSpace=wrap;rounded=0;strokeWidth=1;fontFamily=Iosevka NF;" parent="1" vertex="1">
          <mxGeometry x="82" y="158" width="62" height="29" as="geometry" />
        </mxCell>
        <mxCell id="0l0HvCfX4bjxtaif04-J-42" value="&lt;div&gt;R1&lt;/div&gt;" style="text;html=1;align=center;verticalAlign=middle;whiteSpace=wrap;rounded=0;fontFamily=Iosevka NF;" parent="1" vertex="1">
          <mxGeometry x="53" y="422" width="60" height="30" as="geometry" />
        </mxCell>
        <mxCell id="0l0HvCfX4bjxtaif04-J-43" value="&lt;div&gt;R3&lt;br&gt;&lt;/div&gt;" style="text;html=1;align=center;verticalAlign=middle;whiteSpace=wrap;rounded=0;fontFamily=Iosevka NF;" parent="1" vertex="1">
          <mxGeometry x="-199" y="509" width="60" height="30" as="geometry" />
        </mxCell>
        <mxCell id="0l0HvCfX4bjxtaif04-J-44" value="&lt;div&gt;R2&lt;br&gt;&lt;/div&gt;" style="text;html=1;align=center;verticalAlign=middle;whiteSpace=wrap;rounded=0;fontFamily=Iosevka NF;" parent="1" vertex="1">
          <mxGeometry x="-5.75" y="587" width="60" height="30" as="geometry" />
        </mxCell>
        <mxCell id="0l0HvCfX4bjxtaif04-J-45" value="&lt;div&gt;VLAN C&lt;/div&gt;" style="edgeLabel;html=1;align=center;verticalAlign=middle;resizable=0;points=[];labelBackgroundColor=none;fontFamily=Iosevka NF;" parent="1" vertex="1" connectable="0">
          <mxGeometry x="53" y="397.99588235294095" as="geometry" />
        </mxCell>
        <mxCell id="0l0HvCfX4bjxtaif04-J-46" value="&lt;div&gt;VLAN B&lt;/div&gt;" style="edgeLabel;html=1;align=center;verticalAlign=middle;resizable=0;points=[];labelBackgroundColor=none;fontFamily=Iosevka NF;" parent="1" vertex="1" connectable="0">
          <mxGeometry x="88.38214111777313" y="550.9972454647997" as="geometry" />
        </mxCell>
        <mxCell id="0l0HvCfX4bjxtaif04-J-47" value="&lt;div&gt;trunk&lt;/div&gt;" style="edgeLabel;html=1;align=center;verticalAlign=middle;resizable=0;points=[];labelBackgroundColor=none;fontFamily=Iosevka NF;" parent="1" vertex="1" connectable="0">
          <mxGeometry x="230" y="632.9966666666668" as="geometry">
            <mxPoint x="-7" y="-5" as="offset" />
          </mxGeometry>
        </mxCell>
        <mxCell id="0l0HvCfX4bjxtaif04-J-48" value="&lt;div&gt;trunk&lt;/div&gt;" style="edgeLabel;html=1;align=center;verticalAlign=middle;resizable=0;points=[];labelBackgroundColor=none;fontFamily=Iosevka NF;" parent="1" vertex="1" connectable="0">
          <mxGeometry x="-79" y="717.9966666666668" as="geometry">
            <mxPoint x="-7" y="-5" as="offset" />
          </mxGeometry>
        </mxCell>
        <mxCell id="0l0HvCfX4bjxtaif04-J-49" value="&lt;div&gt;trunk&lt;/div&gt;" style="edgeLabel;html=1;align=center;verticalAlign=middle;resizable=0;points=[];labelBackgroundColor=none;fontFamily=Iosevka NF;" parent="1" vertex="1" connectable="0">
          <mxGeometry x="-171" y="273.9966666666668" as="geometry">
            <mxPoint x="-7" y="-5" as="offset" />
          </mxGeometry>
        </mxCell>
        <mxCell id="0l0HvCfX4bjxtaif04-J-50" value="&lt;div&gt;SW2&lt;/div&gt;" style="text;html=1;align=center;verticalAlign=middle;whiteSpace=wrap;rounded=0;fontFamily=Iosevka NF;" parent="1" vertex="1">
          <mxGeometry x="-231" y="284" width="60" height="30" as="geometry" />
        </mxCell>
        <mxCell id="0l0HvCfX4bjxtaif04-J-51" value="&lt;div&gt;SW1&lt;br&gt;&lt;/div&gt;" style="text;html=1;align=center;verticalAlign=middle;whiteSpace=wrap;rounded=0;fontFamily=Iosevka NF;" parent="1" vertex="1">
          <mxGeometry x="-231" y="178" width="60" height="30" as="geometry" />
        </mxCell>
        <mxCell id="0l0HvCfX4bjxtaif04-J-52" value="&lt;div&gt;SW1&lt;br&gt;&lt;/div&gt;" style="text;html=1;align=center;verticalAlign=middle;whiteSpace=wrap;rounded=0;fontFamily=Iosevka NF;" parent="1" vertex="1">
          <mxGeometry x="-79" y="649" width="60" height="30" as="geometry" />
        </mxCell>
        <mxCell id="0l0HvCfX4bjxtaif04-J-53" value="&lt;div&gt;SW2&lt;br&gt;&lt;/div&gt;" style="text;html=1;align=center;verticalAlign=middle;whiteSpace=wrap;rounded=0;fontFamily=Iosevka NF;" parent="1" vertex="1">
          <mxGeometry x="-244" y="649" width="60" height="30" as="geometry" />
        </mxCell>
        <mxCell id="0l0HvCfX4bjxtaif04-J-54" value="&lt;div&gt;SW1&lt;br&gt;&lt;/div&gt;" style="text;html=1;align=center;verticalAlign=middle;whiteSpace=wrap;rounded=0;fontFamily=Iosevka NF;" parent="1" vertex="1">
          <mxGeometry x="288" y="547" width="60" height="30" as="geometry" />
        </mxCell>
        <mxCell id="0l0HvCfX4bjxtaif04-J-55" value="&lt;div&gt;SW2&lt;br&gt;&lt;/div&gt;" style="text;html=1;align=center;verticalAlign=middle;whiteSpace=wrap;rounded=0;fontFamily=Iosevka NF;" parent="1" vertex="1">
          <mxGeometry x="288" y="675.5" width="60" height="30" as="geometry" />
        </mxCell>
        <mxCell id="0l0HvCfX4bjxtaif04-J-56" value="&lt;p style=&quot;line-height: 120%;&quot;&gt;&lt;/p&gt;&lt;div&gt;ISP&lt;/div&gt;" style="text;html=1;align=center;verticalAlign=middle;whiteSpace=wrap;rounded=0;fontFamily=Iosevka NF;" parent="1" vertex="1">
          <mxGeometry x="-52" y="176" width="60" height="30" as="geometry" />
        </mxCell>
        <mxCell id="0l0HvCfX4bjxtaif04-J-57" value="&lt;div style=&quot;font-size: 11px;&quot;&gt;&lt;font style=&quot;font-size: 8px;&quot;&gt;.1&lt;/font&gt;&lt;/div&gt;" style="text;html=1;align=center;verticalAlign=middle;whiteSpace=wrap;rounded=0;fontFamily=Iosevka NF;" parent="1" vertex="1">
          <mxGeometry x="-56" y="212" width="60" height="30" as="geometry" />
        </mxCell>
        <mxCell id="0l0HvCfX4bjxtaif04-J-58" value="&lt;div style=&quot;font-size: 10px;&quot;&gt;&lt;font style=&quot;font-size: 8px;&quot;&gt;.2&lt;/font&gt;&lt;/div&gt;" style="text;html=1;align=center;verticalAlign=middle;whiteSpace=wrap;rounded=0;fontFamily=Iosevka NF;" parent="1" vertex="1">
          <mxGeometry x="-19" y="387" width="60" height="30" as="geometry" />
        </mxCell>
        <mxCell id="0l0HvCfX4bjxtaif04-J-59" value="&lt;div align=&quot;left&quot;&gt;&lt;div style=&quot;font-size: 8px;&quot;&gt;&lt;font style=&quot;font-size: 8px;&quot;&gt;.129.253&lt;br&gt;:ffff:ffff:ffff:ffff&lt;/font&gt;&lt;/div&gt;&lt;/div&gt;" style="text;html=1;align=left;verticalAlign=middle;whiteSpace=wrap;rounded=0;fontFamily=Iosevka NF;" parent="1" vertex="1">
          <mxGeometry x="3" y="753" width="150" height="30" as="geometry" />
        </mxCell>
        <mxCell id="0l0HvCfX4bjxtaif04-J-60" value="&lt;div align=&quot;left&quot;&gt;&lt;div style=&quot;font-size: 8px;&quot;&gt;&lt;font style=&quot;font-size: 8px;&quot;&gt;.205&lt;br&gt;&lt;/font&gt;&lt;font style=&quot;font-size: 8px;&quot;&gt;:ffff:ffff:ffff:ffff&lt;/font&gt;&lt;/div&gt;&lt;/div&gt;" style="text;html=1;align=left;verticalAlign=middle;whiteSpace=wrap;rounded=0;fontFamily=Iosevka NF;" parent="1" vertex="1">
          <mxGeometry x="254" y="476" width="154" height="30" as="geometry" />
        </mxCell>
        <mxCell id="0l0HvCfX4bjxtaif04-J-61" value="&lt;div align=&quot;left&quot;&gt;&lt;div style=&quot;font-size: 8px;&quot;&gt;&lt;font style=&quot;font-size: 8px;&quot;&gt;.129.254&lt;br&gt;&lt;font style=&quot;font-size: 8px;&quot;&gt;:ffff:ffff:ffff:fffe&lt;/font&gt;&lt;/font&gt;&lt;/div&gt;&lt;/div&gt;" style="text;html=1;align=left;verticalAlign=middle;whiteSpace=wrap;rounded=0;fontFamily=Iosevka NF;" parent="1" vertex="1">
          <mxGeometry x="-166" y="753" width="154" height="30" as="geometry" />
        </mxCell>
        <mxCell id="0l0HvCfX4bjxtaif04-J-62" value="&lt;div align=&quot;left&quot;&gt;&lt;div style=&quot;font-size: 8px;&quot;&gt;&lt;font style=&quot;font-size: 8px;&quot;&gt;.206&lt;br&gt;:ffff:ffff:ffff:fffe&lt;/font&gt;&lt;/div&gt;&lt;/div&gt;" style="text;html=1;align=left;verticalAlign=middle;whiteSpace=wrap;rounded=0;fontFamily=Iosevka NF;" parent="1" vertex="1">
          <mxGeometry x="254" y="758" width="150" height="30" as="geometry" />
        </mxCell>
        <mxCell id="0l0HvCfX4bjxtaif04-J-63" value="&lt;div align=&quot;right&quot;&gt;&lt;div style=&quot;font-size: 8px;&quot;&gt;&lt;font style=&quot;font-size: 8px;&quot;&gt;202.206.130.36/30&lt;br&gt;2002:d1ec:211a:7004::2/127&lt;br&gt;&lt;/font&gt;&lt;/div&gt;&lt;/div&gt;" style="text;html=1;align=right;verticalAlign=middle;whiteSpace=wrap;rounded=0;fontFamily=Iosevka NF;" parent="1" vertex="1">
          <mxGeometry x="-174" y="464" width="110" height="30" as="geometry" />
        </mxCell>
        <mxCell id="0l0HvCfX4bjxtaif04-J-64" value="&lt;div align=&quot;left&quot;&gt;&lt;div style=&quot;font-size: 8px;&quot;&gt;&lt;font style=&quot;font-size: 8px;&quot;&gt;.38&lt;br&gt;:3&lt;/font&gt;&lt;/div&gt;&lt;/div&gt;" style="text;html=1;align=left;verticalAlign=middle;whiteSpace=wrap;rounded=0;fontFamily=Iosevka NF;" parent="1" vertex="1">
          <mxGeometry x="-150" y="506" width="107" height="30" as="geometry" />
        </mxCell>
        <mxCell id="0l0HvCfX4bjxtaif04-J-65" value="&lt;div align=&quot;left&quot;&gt;&lt;div style=&quot;font-size: 8px;&quot;&gt;&lt;font style=&quot;font-size: 8px;&quot;&gt;.37&lt;br&gt;:2&lt;/font&gt;&lt;/div&gt;&lt;/div&gt;" style="text;html=1;align=left;verticalAlign=middle;whiteSpace=wrap;rounded=0;fontFamily=Iosevka NF;" parent="1" vertex="1">
          <mxGeometry x="-35" y="434" width="107" height="30" as="geometry" />
        </mxCell>
        <mxCell id="0l0HvCfX4bjxtaif04-J-66" value="&lt;div align=&quot;left&quot;&gt;&lt;div style=&quot;font-size: 8px;&quot;&gt;&lt;font style=&quot;font-size: 8px;&quot;&gt;202.206.130.32/30&lt;br&gt;2002:d1ec:211a:7004::/127&lt;/font&gt;&lt;/div&gt;&lt;/div&gt;" style="text;html=1;align=left;verticalAlign=middle;whiteSpace=wrap;rounded=0;fontFamily=Iosevka NF;" parent="1" vertex="1">
          <mxGeometry x="30.5" y="490" width="89" height="30" as="geometry" />
        </mxCell>
        <mxCell id="0l0HvCfX4bjxtaif04-J-67" value="&lt;div align=&quot;left&quot;&gt;&lt;div style=&quot;font-size: 8px;&quot;&gt;&lt;font style=&quot;font-size: 8px;&quot;&gt;.33&lt;br&gt;:0&lt;/font&gt;&lt;/div&gt;&lt;/div&gt;" style="text;html=1;align=left;verticalAlign=middle;whiteSpace=wrap;rounded=0;fontFamily=Iosevka NF;" parent="1" vertex="1">
          <mxGeometry x="30.5" y="460" width="107" height="30" as="geometry" />
        </mxCell>
        <mxCell id="0l0HvCfX4bjxtaif04-J-68" value="&lt;div align=&quot;left&quot;&gt;&lt;div style=&quot;font-size: 8px;&quot;&gt;&lt;font style=&quot;font-size: 8px;&quot;&gt;.34&lt;br&gt;:1&lt;/font&gt;&lt;/div&gt;&lt;/div&gt;" style="text;html=1;align=left;verticalAlign=middle;whiteSpace=wrap;rounded=0;fontFamily=Iosevka NF;" parent="1" vertex="1">
          <mxGeometry y="509" width="107" height="30" as="geometry" />
        </mxCell>
        <mxCell id="0l0HvCfX4bjxtaif04-J-69" value="&lt;div align=&quot;right&quot;&gt;&lt;div style=&quot;font-size: 8px;&quot;&gt;&lt;font style=&quot;font-size: 8px;&quot;&gt;202.206.130.40/30&lt;br&gt;2002:d1ec:211a:7004::4/127&lt;/font&gt;&lt;/div&gt;&lt;/div&gt;" style="text;html=1;align=right;verticalAlign=middle;whiteSpace=wrap;rounded=0;fontFamily=Iosevka NF;" parent="1" vertex="1">
          <mxGeometry x="-109" y="530" width="90" height="30" as="geometry" />
        </mxCell>
        <mxCell id="0l0HvCfX4bjxtaif04-J-70" value="&lt;div align=&quot;left&quot;&gt;&lt;div style=&quot;font-size: 8px;&quot;&gt;&lt;font style=&quot;font-size: 8px;&quot;&gt;.41&lt;br&gt;:5&lt;/font&gt;&lt;/div&gt;&lt;/div&gt;" style="text;html=1;align=left;verticalAlign=middle;whiteSpace=wrap;rounded=0;fontFamily=Iosevka NF;" parent="1" vertex="1">
          <mxGeometry x="-34" y="565" width="107" height="30" as="geometry" />
        </mxCell>
        <mxCell id="0l0HvCfX4bjxtaif04-J-71" value="&lt;div align=&quot;left&quot;&gt;&lt;div style=&quot;font-size: 8px;&quot;&gt;&lt;font style=&quot;font-size: 8px;&quot;&gt;.42&lt;br&gt;:6&lt;/font&gt;&lt;/div&gt;&lt;/div&gt;" style="text;html=1;align=left;verticalAlign=middle;whiteSpace=wrap;rounded=0;fontFamily=Iosevka NF;" parent="1" vertex="1">
          <mxGeometry x="-130" y="565" width="107" height="30" as="geometry" />
        </mxCell>
        <mxCell id="0l0HvCfX4bjxtaif04-J-72" value="&lt;div align=&quot;left&quot;&gt;&lt;div style=&quot;font-size: 8px;&quot;&gt;&lt;font style=&quot;font-size: 8px;&quot;&gt;202.206.128.0/23&lt;br&gt;2002:d1ec:211a:7001::/64&lt;/font&gt;&lt;/div&gt;&lt;/div&gt;" style="text;html=1;align=left;verticalAlign=middle;whiteSpace=wrap;rounded=0;fontFamily=Iosevka NF;" parent="1" vertex="1">
          <mxGeometry x="-160" y="633" width="96" height="30" as="geometry" />
        </mxCell>
        <mxCell id="0l0HvCfX4bjxtaif04-J-73" value="&lt;div align=&quot;left&quot;&gt;&lt;div style=&quot;font-size: 8px;&quot;&gt;&lt;font style=&quot;font-size: 8px;&quot;&gt;172.17.75.192/28&lt;br&gt;2002:d1ec:211a:7002::/64&lt;/font&gt;&lt;/div&gt;&lt;/div&gt;" style="text;html=1;align=left;verticalAlign=middle;whiteSpace=wrap;rounded=0;fontFamily=Iosevka NF;" parent="1" vertex="1">
          <mxGeometry x="144" y="509" width="102.5" height="30" as="geometry" />
        </mxCell>
        <mxCell id="0l0HvCfX4bjxtaif04-J-75" value="&lt;div style=&quot;font-size: 11px;&quot;&gt;&lt;font style=&quot;font-size: 8px;&quot;&gt;10.0.0.0/30&lt;/font&gt;&lt;/div&gt;" style="text;html=1;align=center;verticalAlign=middle;whiteSpace=wrap;rounded=0;fontFamily=Iosevka NF;" parent="1" vertex="1">
          <mxGeometry x="-40" y="349" width="60" height="30" as="geometry" />
        </mxCell>
        <mxCell id="QOoUL-QEqDW-H3TCwWbr-1" value="&amp;nbsp;" style="text;whiteSpace=wrap;html=1;fontFamily=Iosevka NF;" parent="1" vertex="1">
          <mxGeometry x="-380" y="-150" width="40" height="40" as="geometry" />
        </mxCell>
        <mxCell id="QOoUL-QEqDW-H3TCwWbr-2" value="&lt;div align=&quot;left&quot;&gt;&lt;div style=&quot;font-size: 8px;&quot;&gt;&lt;font style=&quot;font-size: 8px;&quot;&gt;.193&lt;br&gt;&lt;/font&gt;&lt;font style=&quot;font-size: 8px;&quot;&gt;:1&lt;/font&gt;&lt;/div&gt;&lt;/div&gt;" style="text;html=1;align=left;verticalAlign=middle;whiteSpace=wrap;rounded=0;fontFamily=Iosevka NF;" parent="1" vertex="1">
          <mxGeometry x="63.25" y="565" width="154" height="30" as="geometry" />
        </mxCell>
        <mxCell id="QOoUL-QEqDW-H3TCwWbr-3" value="&lt;div align=&quot;left&quot;&gt;&lt;div style=&quot;font-size: 8px;&quot;&gt;&lt;font style=&quot;font-size: 8px;&quot;&gt;.128.1&lt;br&gt;&lt;/font&gt;&lt;font style=&quot;font-size: 8px;&quot;&gt;:1&lt;/font&gt;&lt;/div&gt;&lt;/div&gt;" style="text;html=1;align=left;verticalAlign=middle;whiteSpace=wrap;rounded=0;fontFamily=Iosevka NF;" parent="1" vertex="1">
          <mxGeometry x="-204" y="587" width="154" height="30" as="geometry" />
        </mxCell>
      </root>
    </mxGraphModel>
  </diagram>
</mxfile>
